# xmcd
#
# Track frame offsets:
#	150
#	20525
#	39922
#	62084
#	82929
#	99288
#	127610
#	146008
#	162098
#	178343
#	195470
#	218685
#	236652
#	252498
#	273663
#	289821
#	310877
#	339890
#
# Disc length: 4806 seconds
#
# Revision: 1
# Processed by: cddbd v1.5.2PL0 Copyright (c) Steve Scherf et al.
# Submitted via: EasyCDDAExtractor 8.2.3.1
#
DISCID=f712c412
DTITLE=TONY JOE WHITE - The Best of... vol.2   CD-2    80'06''
DYEAR=2004
DGENRE=Blues
TTITLE0=Cold Fingers
TTITLE1=Tunica Motel
TTITLE2=I Want To Be With You
TTITLE3=Bayou Woman
TTITLE4=Polk Salad Annie
TTITLE5=Rico
TTITLE6=Goin' Down Rockin'
TTITLE7=2 Hot 4U
TTITLE8=Love M.D.
TTITLE9=High Sheriff of Calhoun Parrish
TTITLE10=The Beach Life
TTITLE11=Don't Over Do It
TTITLE12=Backside of Paradise
TTITLE13=I Just Walked Away
TTITLE14=Ice Cream Man
TTITLE15=Undercover Agent For the Blues
TTITLE16=Down Again
TTITLE17=The Delta Singer
EXTD=
EXTT0=
EXTT1=
EXTT2=
EXTT3=
EXTT4=
EXTT5=
EXTT6=
EXTT7=
EXTT8=
EXTT9=
EXTT10=
EXTT11=
EXTT12=
EXTT13=
EXTT14=
EXTT15=
EXTT16=
EXTT17=
PLAYORDER=
